<svg xmlns="http://www.w3.org/2000/svg" viewBox="0 0 137 18.83"><defs><style>.cls-1{fill:#fff;}</style></defs><title>资源 8</title><g id="图层_2" data-name="图层 2"><g id="图层_1-2" data-name="图层 1"><path class="cls-1" d="M5.66,0l5.79,12.22V0h4.61V18.81h-5.5l-6-12.34V18.81H0V0H4.61V0Z"/><path class="cls-1" d="M18.09,6.45H33.28v8.47a3.78,3.78,0,0,1-3.76,3.78H18.09ZM22.8,7.94V17.2h3.89A1.77,1.77,0,0,0,28,16.64a1.81,1.81,0,0,0,.56-1.32V7.94Z"/><path class="cls-1" d="M50.48,6.61,45.18,18.79H40.06L34.77,6.61H39.5l3.12,7.26,3.14-7.26Z"/><path class="cls-1" d="M56.72,14.2v3.12h11v1.51H52V6.59H67.69v4.8a2.82,2.82,0,0,1-2.83,2.81Zm0-1.49H61.1a1.76,1.76,0,0,0,1.32-.56A1.81,1.81,0,0,0,63,10.83V8.08H56.72Z"/><path class="cls-1" d="M74.35.06V18.79H69.64V.06Z"/><path class="cls-1" d="M85.82,17.24H96.69v1.51H81.11V0H96.69V1.51H85.82Z"/><path class="cls-1" d="M97.89,6.45h15.19v8.47a3.78,3.78,0,0,1-3.76,3.78H97.89Zm4.71,1.49V17.2h3.89a1.77,1.77,0,0,0,1.32-.56,1.81,1.81,0,0,0,.56-1.32V7.94Z"/><path class="cls-1" d="M115.07,6.45h15.19v8.47a3.78,3.78,0,0,1-3.76,3.78H115.07Zm4.71,1.49V17.2h3.89a1.77,1.77,0,0,0,1.32-.56,1.81,1.81,0,0,0,.56-1.32V7.94Z"/><path class="cls-1" d="M137,.06V18.79h-4.71V.06Z"/></g></g></svg>